
<svg viewBox="0 0 420 85" fill="none" xmlns="http://www.w3.org/2000/svg"><g clip-path="url(#clip0_938_3636)"><path d="M84.843 0.00195312C83.0876 0.00195312 81.6419 0.367207 80.5574 1.1499C79.5247 1.88041 78.5952 3.02835 77.7176 4.59372L51.0225 54.9989L24.3789 4.54156C23.5527 3.02835 22.5717 1.88041 21.539 1.1499C20.4546 0.367207 18.9572 0.00195312 17.15 0.00195312C12.8127 0.00195312 10.4375 2.45438 10.4375 6.8896V38.6269C10.4375 43.0624 12.8127 45.5148 17.15 45.5148C21.3324 45.5148 23.656 43.0624 23.656 38.6269V28.9614L44.981 68.5655C45.6522 69.7656 46.427 70.705 47.3046 71.3831C48.234 72.1138 49.5249 72.5312 51.1257 72.5312C52.6232 72.5312 53.8622 72.1657 54.7401 71.4354C55.5664 70.8092 56.2892 69.8178 57.0121 68.5133L78.3373 28.8049V77.8535C78.3373 82.2886 80.6608 84.741 84.9465 84.741C89.1287 84.741 91.4523 82.2886 91.4523 77.8535V6.8896C91.3491 2.45438 89.0771 0.00195312 84.843 0.00195312Z" fill="#00D6C1"></path><path d="M157.182 53.5355C157.182 44.6131 154.858 37.5165 150.315 32.403C145.719 27.2373 139.316 24.5762 131.365 24.5762C125.891 24.5762 120.934 25.8807 116.7 28.4374C112.415 30.9942 109.058 34.5947 106.683 39.1863C104.308 43.7259 103.069 49.0482 103.069 54.9443C103.069 64.1804 105.805 71.5895 111.279 76.9641C116.7 82.3386 124.187 85.052 133.533 85.052C136.735 85.052 140.091 84.5823 143.654 83.6951C147.217 82.8083 150.366 81.3995 152.999 79.5732C154.703 78.4774 155.788 77.1205 156.201 75.5553C156.614 73.99 156.511 72.529 155.84 71.1721C155.117 69.8156 153.981 68.9284 152.432 68.5632C150.934 68.2503 149.23 68.6155 147.32 69.7114C145.099 71.1202 142.827 72.1638 140.504 72.6854C138.129 73.2074 135.805 73.5203 133.688 73.5203C123.516 73.5203 118.043 68.6677 116.907 58.7536H151.451C156.614 58.7013 157.182 55.1011 157.182 53.5355ZM144.893 49.0482H116.907C117.63 45.0828 119.127 41.7955 121.451 39.3427C123.981 36.6816 127.44 35.2728 131.829 35.2728C135.857 35.2728 139.058 36.5774 141.279 39.134C143.292 41.4822 144.532 44.8218 144.893 49.0482Z" fill="#00D6C1"></path><path d="M213.307 0C208.815 0 206.337 2.55678 206.337 7.14856V31.8294C204.891 30.1074 203.084 28.6986 201.018 27.4985C197.611 25.5678 193.635 24.5764 189.297 24.5764C184.185 24.5764 179.642 25.8287 175.82 28.3333C172 30.8379 169.005 34.3863 166.888 38.8736C164.771 43.3088 163.687 48.6833 163.687 54.7882C163.687 60.8931 164.771 66.2676 166.888 70.7549C169.005 75.2946 172.051 78.8429 175.924 81.2953C179.745 83.7477 184.289 85 189.349 85C193.686 85 197.662 84.0086 201.07 82.0259C203.187 80.8256 204.994 79.3126 206.491 77.5383V77.6428C206.491 82.2343 208.97 84.7913 213.41 84.7913C217.903 84.7913 220.381 82.2343 220.381 77.6428V7.14856C220.381 2.55678 217.851 0 213.307 0ZM206.595 54.7882C206.595 60.8931 205.252 65.6414 202.619 68.8245C199.986 71.9553 196.629 73.5206 192.292 73.5206C187.903 73.5206 184.495 72.0073 181.862 68.8245C179.229 65.6414 177.886 60.9453 177.886 54.7882C177.886 48.6833 179.229 43.9872 181.862 40.8563C184.495 37.7255 187.903 36.2125 192.292 36.2125C196.629 36.2125 199.986 37.7255 202.619 40.8563C205.252 43.9872 206.595 48.6833 206.595 54.7882Z" fill="#00D6C1"></path><path d="M277.803 24.7891C273.26 24.7891 270.73 27.3459 270.73 31.9375V58.4446C270.73 62.932 269.49 66.5848 267.064 69.1936C264.637 71.8548 261.487 73.1071 257.563 73.1071C254.052 73.1071 251.47 72.1677 249.972 70.3414C248.372 68.4633 247.545 65.3847 247.545 61.2625V31.9375C247.545 27.3459 245.016 24.7891 240.472 24.7891C235.979 24.7891 233.501 27.3459 233.501 31.9375V61.2102C233.501 77.0206 240.678 85.0039 254.826 85.0039C258.854 85.0039 262.52 84.1168 265.721 82.3428C267.735 81.2469 269.542 79.7339 271.039 77.9597C271.143 82.3951 273.569 84.7952 277.855 84.7952C282.244 84.7952 284.671 82.2383 284.671 77.6467V31.9375C284.722 27.3459 282.244 24.7891 277.803 24.7891Z" fill="#002858"></path><path d="M338.627 56.093C335.941 53.5883 331.965 51.7621 326.854 50.7185L316.115 48.5267C311.725 47.5876 309.659 45.6569 309.659 42.4741C309.659 40.3869 310.486 38.7693 312.189 37.517C313.997 36.2124 316.735 35.5343 320.349 35.5343C322.308 35.5343 324.425 35.8472 326.545 36.4734C328.713 37.0996 330.88 38.039 333.05 39.3955L333.1 39.4478C334.805 40.2827 336.356 40.4914 337.696 39.9694C338.989 39.4997 340.02 38.6129 340.69 37.3605C341.364 36.1082 341.568 34.8036 341.26 33.3948C340.951 31.9338 340.071 30.7337 338.574 29.7945C333.462 26.2985 327.319 24.5244 320.349 24.5244C313.377 24.5244 307.646 26.1942 303.308 29.4814C298.816 32.8732 296.544 37.4128 296.544 43.1003C296.544 51.7098 301.708 57.1366 311.828 59.2235L322.569 61.4152C325.098 61.9891 326.957 62.7718 328.143 63.7112C329.178 64.5458 329.694 65.7461 329.694 67.3114C329.694 69.2941 328.867 70.8597 327.165 72.0598C325.356 73.3643 322.569 73.9902 318.852 73.9902C316.319 73.9902 313.738 73.6773 311.157 72.9988C308.575 72.3207 305.787 71.2249 302.947 69.6596C301.295 68.7725 299.797 68.616 298.403 69.1899C297.06 69.7115 296.131 70.651 295.511 71.9552C294.944 73.2076 294.84 74.6164 295.201 76.0255C295.615 77.4862 296.596 78.7386 298.145 79.6257C301.139 81.5042 304.496 82.913 308.162 83.6956C311.776 84.4783 315.338 84.8438 318.694 84.8438C325.822 84.8438 331.603 83.2259 335.941 80.0954C340.432 76.86 342.707 72.2685 342.707 66.5288C342.861 62.2501 341.414 58.7018 338.627 56.093Z" fill="#002858"></path><path d="M27.2654 61.1531H23.1347V56.9787C23.1347 53.4304 20.2948 50.5605 16.7836 50.5605C13.2725 50.5605 10.4325 53.4304 10.4325 56.9787V61.1531H6.30175C2.79059 61.1531 -0.0493164 64.023 -0.0493164 67.5713C-0.0493164 71.1192 2.79059 73.9891 6.30175 73.9891H10.4325V78.1635C10.4325 81.7118 13.2725 84.5816 16.7836 84.5816C20.2948 84.5816 23.1347 81.7118 23.1347 78.1635V73.9891H27.2654C30.7766 73.9891 33.6166 71.1192 33.6166 67.5713C33.565 64.023 30.725 61.1531 27.2654 61.1531Z" fill="#00D6C1"></path></g><path d="M355.192 21.1811V13.1711H350.992V35.3711H355.192V33.0011C356.212 34.4411 358.072 35.6411 360.682 35.6411C364.942 35.6411 368.272 32.1911 368.272 27.0011C368.272 21.8111 364.942 18.4811 360.682 18.4811C358.162 18.4811 356.212 19.6511 355.192 21.1811ZM363.982 27.0011C363.982 30.1511 361.852 31.9511 359.572 31.9511C357.322 31.9511 355.192 30.2111 355.192 27.0611C355.192 23.9111 357.322 22.1711 359.572 22.1711C361.852 22.1711 363.982 23.8511 363.982 27.0011ZM386.354 30.1511H381.824C381.284 31.2611 380.294 32.1611 378.494 32.1611C376.394 32.1611 374.714 30.7811 374.504 28.3211H386.654C386.744 27.7811 386.774 27.2411 386.774 26.7011C386.774 21.7511 383.384 18.4811 378.584 18.4811C373.664 18.4811 370.244 21.8111 370.244 27.0611C370.244 32.2811 373.754 35.6411 378.584 35.6411C382.694 35.6411 385.454 33.2111 386.354 30.1511ZM378.464 21.9311C380.624 21.9311 382.364 23.3111 382.424 25.5011H374.534C374.864 23.2211 376.454 21.9311 378.464 21.9311ZM390.5 30.2111C390.5 34.0211 392.63 35.3711 395.81 35.3711H398.45V31.8311H396.5C395.18 31.8311 394.73 31.3511 394.73 30.2411V22.2011H398.45V18.7511H394.73V14.6411H390.5V18.7511H388.52V22.2011H390.5V30.2111ZM400.39 27.0011C400.39 32.1911 403.75 35.6411 407.95 35.6411C410.59 35.6411 412.48 34.3811 413.47 32.9411V35.3711H417.7V18.7511H413.47V21.1211C412.48 19.7411 410.65 18.4811 407.98 18.4811C403.75 18.4811 400.39 21.8111 400.39 27.0011ZM413.47 27.0611C413.47 30.2111 411.37 31.9511 409.06 31.9511C406.81 31.9511 404.68 30.1511 404.68 27.0011C404.68 23.8511 406.81 22.1711 409.06 22.1711C411.37 22.1711 413.47 23.9111 413.47 27.0611Z" fill="#00D6C1"></path><defs><clipPath id="clip0_938_3636"><rect width="346" height="85" fill="white"></rect></clipPath></defs></svg>
